<?xml version="1.0" encoding="UTF-8" standalone="no"?><!DOCTYPE svg PUBLIC "-//W3C//DTD SVG 1.1//EN" "http://www.w3.org/Graphics/SVG/1.1/DTD/svg11.dtd"><svg width="100%" height="100%" viewBox="0 0 1024 1024" version="1.1" xmlns="http://www.w3.org/2000/svg" xmlns:xlink="http://www.w3.org/1999/xlink" xml:space="preserve" xmlns:serif="http://www.serif.com/" style="fill-rule:evenodd;clip-rule:evenodd;stroke-linejoin:round;stroke-miterlimit:2;"><path d="M216.985,973.564c-0.737,-0.295 -0.957,-44.331 -0.957,-216.722c-0,-180.196 -0.148,-216.427 -0.958,-217.163c-0.736,-0.589 -15.611,-0.884 -51.032,-0.957l-50.001,-0.221l-0.221,-25.774c-0.148,-23.565 -0.074,-25.848 1.104,-26.731c0.958,-0.663 54.273,-0.884 260.685,-0.884l259.358,0l0.81,-1.473c0.59,-1.031 0.737,-26.142 0.59,-85.274l-0.295,-83.729l-1.62,-8.1c-7.88,-37.851 -31.739,-68.485 -65.834,-84.244c-37.262,-17.305 -83.213,-13.476 -116.719,9.647c-14.359,9.941 -27.615,24.375 -35.052,38.145c-0.81,1.399 -2.136,3.903 -3.093,5.523c-1.988,3.609 -5.965,13.845 -7.732,19.883c-4.566,15.833 -5.155,24.964 -5.155,85.496c0,37.409 -0.221,49.559 -0.884,50.222c-1.104,1.104 -49.706,1.252 -51.4,0.147c-0.957,-0.589 -1.105,-7.364 -1.326,-52.431c-0.221,-61.71 0.221,-70.179 5.155,-90.43c5.744,-23.785 15.759,-44.404 31.444,-65.171c3.24,-4.271 21.798,-23.344 26.069,-26.805c20.03,-15.979 42.637,-27.541 66.054,-33.579c28.499,-7.364 58.397,-7.217 87.632,0.515c44.552,11.709 84.612,43.742 106.703,85.348c10.457,19.736 16.348,38.882 18.852,61.637c0.884,7.511 1.105,25.111 1.105,89.251c-0,43.963 0.221,80.635 0.442,81.593c0.589,2.062 2.135,2.062 10.972,0.221c11.414,-2.357 32.475,-8.69 34.611,-10.383c0.441,-0.295 1.546,-0.811 2.577,-1.105c2.798,-0.81 18.115,-8.616 23.933,-12.151c42.784,-26.142 72.388,-65.833 85.348,-114.141c7.88,-29.382 8.321,-62.226 1.178,-93.522c-1.546,-6.702 -6.701,-23.123 -8.468,-27.026c-0.589,-1.252 -1.105,-2.43 -1.105,-2.725c0,-1.178 -7.806,-16.642 -11.782,-23.27c-9.131,-15.17 -16.569,-24.816 -29.014,-37.262c-30.708,-30.707 -67.454,-48.602 -112.006,-54.64c-7.953,-1.031 -29.971,-1.178 -211.714,-1.399c-129.09,-0.148 -203.245,0.073 -203.982,0.515c-0.957,0.589 -1.104,19.662 -1.325,163.186c-0.074,118.265 -0.368,162.817 -0.958,163.553c-0.662,0.737 -5.817,0.958 -25.773,0.958c-21.65,-0 -25.038,-0.148 -25.995,-1.179c-1.031,-1.031 -1.178,-19.293 -1.178,-190.358l-0,-189.18l1.914,-0.737c3.093,-1.178 463.635,-0.589 471.22,0.663c30.487,4.713 31.444,4.934 49.707,10.751c65.245,20.619 121.726,71.504 148.752,134.024c0.81,2.062 1.841,4.345 2.209,5.155c2.43,5.081 7.143,18.999 9.868,29.088c5.597,20.398 8.542,42.711 8.542,64.876c0,52.505 -17.232,103.98 -48.823,146.101c-12.74,16.938 -32.549,36.673 -48.381,48.382c-12.077,8.836 -30.413,20.472 -32.328,20.472c-0.442,-0 -0.81,0.736 -0.81,1.693c-0,1.178 0.736,2.062 2.43,2.946c6.554,3.314 21.061,12.445 28.13,17.747c63.11,47.129 99.782,119.296 99.782,196.176c0,52.284 -15.538,100.96 -45.877,143.597c-22.976,32.328 -56.187,60.164 -92.271,77.396c-12.519,6.038 -11.488,5.596 -19.073,8.394c-15.611,5.892 -31.37,10.163 -46.761,12.593c-3.829,0.663 -9.499,1.546 -12.518,2.062c-4.124,0.662 -35.2,0.957 -120.401,1.104c-108.03,0.221 -114.952,0.221 -115.762,-1.031c-1.325,-1.767 -1.399,-50.296 -0.073,-51.621c0.662,-0.663 25.994,-0.884 109.502,-0.884c91.902,0 110.238,-0.221 118.633,-1.104c26.51,-2.946 44.847,-8.395 67.749,-20.104c77.469,-39.544 117.676,-126.586 98.235,-212.598c-9.5,-41.901 -33.432,-79.678 -67.749,-106.924c-20.177,-15.98 -46.613,-28.867 -71.209,-34.685c-13.402,-3.24 -18.263,-4.05 -19.146,-3.166c-0.663,0.663 -0.958,41.754 -1.252,162.67l-0.368,161.786l-25.701,0.221c-18.336,0.147 -25.994,-0.074 -26.657,-0.663c-0.884,-0.736 -1.031,-26.584 -1.031,-162.449c-0,-109.944 -0.221,-162.007 -0.737,-163.038c-0.81,-1.399 -3.608,-1.399 -182.11,-1.399c-112.964,-0 -181.743,0.295 -182.406,0.736c-0.957,0.589 -1.104,22.534 -1.325,188.812c-0.074,123.494 0.073,188.739 0.589,189.991l0.736,1.914l37.704,-0.147l37.777,-0.221l0.368,-162.891c0.221,-113.626 0.589,-163.112 1.178,-163.701c0.516,-0.515 9.058,-0.662 26.511,-0.589l25.7,0.221l0.221,189.917c0.147,151.476 -0,190.064 -0.737,190.579c-1.031,0.589 -181.448,0.736 -182.994,0.074Z" style="fill-rule:nonzero;"/></svg>